<?xml version="1.0" encoding="utf-8" standalone="no"?>
<!DOCTYPE svg PUBLIC "-//W3C//DTD SVG 1.1//EN"
  "http://www.w3.org/Graphics/SVG/1.1/DTD/svg11.dtd">
<svg height="747.0275pt" version="1.1" viewBox="0 0 1359.9625 747.0275" width="1359.9625pt" xmlns="http://www.w3.org/2000/svg" xmlns:xlink="http://www.w3.org/1999/xlink">
 <metadata>
  <rdf:RDF xmlns:cc="http://creativecommons.org/ns#" xmlns:dc="http://purl.org/dc/elements/1.1/" xmlns:rdf="http://www.w3.org/1999/02/22-rdf-syntax-ns#">
   <cc:Work>
    <dc:type rdf:resource="http://purl.org/dc/dcmitype/StillImage"/>
    <dc:date>2024-02-02T20:31:57.999734</dc:date>
    <dc:format>image/svg+xml</dc:format>
    <dc:creator>
     <cc:Agent>
      <dc:title>Matplotlib v3.4.3, https://matplotlib.org/</dc:title>
     </cc:Agent>
    </dc:creator>
   </cc:Work>
  </rdf:RDF>
 </metadata>
 <defs>
  <style type="text/css">*{stroke-linecap:butt;stroke-linejoin:round;}</style>
 </defs>
 <g id="figure_1">
  <g id="patch_1">
   <path d="M 0 747.0275 
L 1359.9625 747.0275 
L 1359.9625 0 
L 0 0 
z
" style="fill:none;"/>
  </g>
  <g id="axes_1">
   <g id="patch_2">
    <path d="M 13.5625 685.275937 
L 1352.7625 685.275937 
L 1352.7625 32.955937 
L 13.5625 32.955937 
z
" style="fill:#ffffff;"/>
   </g>
   <g id="patch_3">
    <path clip-path="url(#pe596ecfd86)" d="M 13.5625 39.479137 
L 1288.991071 39.479137 
L 1288.991071 91.664737 
L 13.5625 91.664737 
z
" style="fill:#95cbec;"/>
   </g>
   <g id="patch_4">
    <path clip-path="url(#pe596ecfd86)" d="M 13.5625 104.711137 
L 1243.766411 104.711137 
L 1243.766411 156.896737 
L 13.5625 156.896737 
z
" style="fill:#95cbec;"/>
   </g>
   <g id="patch_5">
    <path clip-path="url(#pe596ecfd86)" d="M 13.5625 169.943137 
L 1212.464126 169.943137 
L 1212.464126 222.128737 
L 13.5625 222.128737 
z
" style="fill:#95cbec;"/>
   </g>
   <g id="patch_6">
    <path clip-path="url(#pe596ecfd86)" d="M 13.5625 235.175137 
L 1186.546833 235.175137 
L 1186.546833 287.360737 
L 13.5625 287.360737 
z
" style="fill:#95cbec;"/>
   </g>
   <g id="patch_7">
    <path clip-path="url(#pe596ecfd86)" d="M 13.5625 300.407137 
L 1183.69289 300.407137 
L 1183.69289 352.592737 
L 13.5625 352.592737 
z
" style="fill:#95cbec;"/>
   </g>
   <g id="patch_8">
    <path clip-path="url(#pe596ecfd86)" d="M 13.5625 365.639137 
L 1169.111394 365.639137 
L 1169.111394 417.824737 
L 13.5625 417.824737 
z
" style="fill:#95cbec;"/>
   </g>
   <g id="patch_9">
    <path clip-path="url(#pe596ecfd86)" d="M 13.5625 430.871137 
L 1161.833619 430.871137 
L 1161.833619 483.056737 
L 13.5625 483.056737 
z
" style="fill:#95cbec;"/>
   </g>
   <g id="patch_10">
    <path clip-path="url(#pe596ecfd86)" d="M 13.5625 496.103137 
L 1080.489885 496.103137 
L 1080.489885 548.288737 
L 13.5625 548.288737 
z
" style="fill:#95cbec;"/>
   </g>
   <g id="patch_11">
    <path clip-path="url(#pe596ecfd86)" d="M 13.5625 561.335137 
L 992.786313 561.335137 
L 992.786313 613.520737 
L 13.5625 613.520737 
z
" style="fill:#95cbec;"/>
   </g>
   <g id="patch_12">
    <path clip-path="url(#pe596ecfd86)" d="M 13.5625 626.567137 
L 934.821634 626.567137 
L 934.821634 678.752737 
L 13.5625 678.752737 
z
" style="fill:#95cbec;"/>
   </g>
   <g id="matplotlib.axis_1">
    <g id="xtick_1">
     <g id="line2d_1">
      <defs>
       <path d="M 0 0 
L 0 3.5 
" id="mb16570efa6" style="stroke:#000000;stroke-width:0.8;"/>
      </defs>
      <g>
       <use style="stroke:#000000;stroke-width:0.8;" x="13.5625" xlink:href="#mb16570efa6" y="685.275937"/>
      </g>
     </g>
     <g id="text_1">
      <!-- 0 -->
      <g transform="translate(7.2 707.472812)scale(0.2 -0.2)">
       <defs>
        <path d="M 2034 4250 
Q 1547 4250 1301 3770 
Q 1056 3291 1056 2328 
Q 1056 1369 1301 889 
Q 1547 409 2034 409 
Q 2525 409 2770 889 
Q 3016 1369 3016 2328 
Q 3016 3291 2770 3770 
Q 2525 4250 2034 4250 
z
M 2034 4750 
Q 2819 4750 3233 4129 
Q 3647 3509 3647 2328 
Q 3647 1150 3233 529 
Q 2819 -91 2034 -91 
Q 1250 -91 836 529 
Q 422 1150 422 2328 
Q 422 3509 836 4129 
Q 1250 4750 2034 4750 
z
" id="DejaVuSans-30" transform="scale(0.015625)"/>
       </defs>
       <use xlink:href="#DejaVuSans-30"/>
      </g>
     </g>
    </g>
    <g id="xtick_2">
     <g id="line2d_2">
      <g>
       <use style="stroke:#000000;stroke-width:0.8;" x="185.310287" xlink:href="#mb16570efa6" y="685.275937"/>
      </g>
     </g>
     <g id="text_2">
      <!-- 2 -->
      <g transform="translate(178.947787 707.472812)scale(0.2 -0.2)">
       <defs>
        <path d="M 1228 531 
L 3431 531 
L 3431 0 
L 469 0 
L 469 531 
Q 828 903 1448 1529 
Q 2069 2156 2228 2338 
Q 2531 2678 2651 2914 
Q 2772 3150 2772 3378 
Q 2772 3750 2511 3984 
Q 2250 4219 1831 4219 
Q 1534 4219 1204 4116 
Q 875 4013 500 3803 
L 500 4441 
Q 881 4594 1212 4672 
Q 1544 4750 1819 4750 
Q 2544 4750 2975 4387 
Q 3406 4025 3406 3419 
Q 3406 3131 3298 2873 
Q 3191 2616 2906 2266 
Q 2828 2175 2409 1742 
Q 1991 1309 1228 531 
z
" id="DejaVuSans-32" transform="scale(0.015625)"/>
       </defs>
       <use xlink:href="#DejaVuSans-32"/>
      </g>
     </g>
    </g>
    <g id="xtick_3">
     <g id="line2d_3">
      <g>
       <use style="stroke:#000000;stroke-width:0.8;" x="357.058073" xlink:href="#mb16570efa6" y="685.275937"/>
      </g>
     </g>
     <g id="text_3">
      <!-- 4 -->
      <g transform="translate(350.695573 707.472812)scale(0.2 -0.2)">
       <defs>
        <path d="M 2419 4116 
L 825 1625 
L 2419 1625 
L 2419 4116 
z
M 2253 4666 
L 3047 4666 
L 3047 1625 
L 3713 1625 
L 3713 1100 
L 3047 1100 
L 3047 0 
L 2419 0 
L 2419 1100 
L 313 1100 
L 313 1709 
L 2253 4666 
z
" id="DejaVuSans-34" transform="scale(0.015625)"/>
       </defs>
       <use xlink:href="#DejaVuSans-34"/>
      </g>
     </g>
    </g>
    <g id="xtick_4">
     <g id="line2d_4">
      <g>
       <use style="stroke:#000000;stroke-width:0.8;" x="528.80586" xlink:href="#mb16570efa6" y="685.275937"/>
      </g>
     </g>
     <g id="text_4">
      <!-- 6 -->
      <g transform="translate(522.44336 707.472812)scale(0.2 -0.2)">
       <defs>
        <path d="M 2113 2584 
Q 1688 2584 1439 2293 
Q 1191 2003 1191 1497 
Q 1191 994 1439 701 
Q 1688 409 2113 409 
Q 2538 409 2786 701 
Q 3034 994 3034 1497 
Q 3034 2003 2786 2293 
Q 2538 2584 2113 2584 
z
M 3366 4563 
L 3366 3988 
Q 3128 4100 2886 4159 
Q 2644 4219 2406 4219 
Q 1781 4219 1451 3797 
Q 1122 3375 1075 2522 
Q 1259 2794 1537 2939 
Q 1816 3084 2150 3084 
Q 2853 3084 3261 2657 
Q 3669 2231 3669 1497 
Q 3669 778 3244 343 
Q 2819 -91 2113 -91 
Q 1303 -91 875 529 
Q 447 1150 447 2328 
Q 447 3434 972 4092 
Q 1497 4750 2381 4750 
Q 2619 4750 2861 4703 
Q 3103 4656 3366 4563 
z
" id="DejaVuSans-36" transform="scale(0.015625)"/>
       </defs>
       <use xlink:href="#DejaVuSans-36"/>
      </g>
     </g>
    </g>
    <g id="xtick_5">
     <g id="line2d_5">
      <g>
       <use style="stroke:#000000;stroke-width:0.8;" x="700.553647" xlink:href="#mb16570efa6" y="685.275937"/>
      </g>
     </g>
     <g id="text_5">
      <!-- 8 -->
      <g transform="translate(694.191147 707.472812)scale(0.2 -0.2)">
       <defs>
        <path d="M 2034 2216 
Q 1584 2216 1326 1975 
Q 1069 1734 1069 1313 
Q 1069 891 1326 650 
Q 1584 409 2034 409 
Q 2484 409 2743 651 
Q 3003 894 3003 1313 
Q 3003 1734 2745 1975 
Q 2488 2216 2034 2216 
z
M 1403 2484 
Q 997 2584 770 2862 
Q 544 3141 544 3541 
Q 544 4100 942 4425 
Q 1341 4750 2034 4750 
Q 2731 4750 3128 4425 
Q 3525 4100 3525 3541 
Q 3525 3141 3298 2862 
Q 3072 2584 2669 2484 
Q 3125 2378 3379 2068 
Q 3634 1759 3634 1313 
Q 3634 634 3220 271 
Q 2806 -91 2034 -91 
Q 1263 -91 848 271 
Q 434 634 434 1313 
Q 434 1759 690 2068 
Q 947 2378 1403 2484 
z
M 1172 3481 
Q 1172 3119 1398 2916 
Q 1625 2713 2034 2713 
Q 2441 2713 2670 2916 
Q 2900 3119 2900 3481 
Q 2900 3844 2670 4047 
Q 2441 4250 2034 4250 
Q 1625 4250 1398 4047 
Q 1172 3844 1172 3481 
z
" id="DejaVuSans-38" transform="scale(0.015625)"/>
       </defs>
       <use xlink:href="#DejaVuSans-38"/>
      </g>
     </g>
    </g>
    <g id="xtick_6">
     <g id="line2d_6">
      <g>
       <use style="stroke:#000000;stroke-width:0.8;" x="872.301434" xlink:href="#mb16570efa6" y="685.275937"/>
      </g>
     </g>
     <g id="text_6">
      <!-- 10 -->
      <g transform="translate(859.576434 707.472812)scale(0.2 -0.2)">
       <defs>
        <path d="M 794 531 
L 1825 531 
L 1825 4091 
L 703 3866 
L 703 4441 
L 1819 4666 
L 2450 4666 
L 2450 531 
L 3481 531 
L 3481 0 
L 794 0 
L 794 531 
z
" id="DejaVuSans-31" transform="scale(0.015625)"/>
       </defs>
       <use xlink:href="#DejaVuSans-31"/>
       <use x="63.623047" xlink:href="#DejaVuSans-30"/>
      </g>
     </g>
    </g>
    <g id="xtick_7">
     <g id="line2d_7">
      <g>
       <use style="stroke:#000000;stroke-width:0.8;" x="1044.04922" xlink:href="#mb16570efa6" y="685.275937"/>
      </g>
     </g>
     <g id="text_7">
      <!-- 12 -->
      <g transform="translate(1031.32422 707.472812)scale(0.2 -0.2)">
       <use xlink:href="#DejaVuSans-31"/>
       <use x="63.623047" xlink:href="#DejaVuSans-32"/>
      </g>
     </g>
    </g>
    <g id="xtick_8">
     <g id="line2d_8">
      <g>
       <use style="stroke:#000000;stroke-width:0.8;" x="1215.797007" xlink:href="#mb16570efa6" y="685.275937"/>
      </g>
     </g>
     <g id="text_8">
      <!-- 14 -->
      <g transform="translate(1203.072007 707.472812)scale(0.2 -0.2)">
       <use xlink:href="#DejaVuSans-31"/>
       <use x="63.623047" xlink:href="#DejaVuSans-34"/>
      </g>
     </g>
    </g>
    <g id="text_9">
     <!-- −log₁₀(p‐value) -->
     <g transform="translate(587.592188 734.628281)scale(0.25 -0.25)">
      <defs>
       <path d="M 678 2272 
L 4684 2272 
L 4684 1741 
L 678 1741 
L 678 2272 
z
" id="DejaVuSans-2212" transform="scale(0.015625)"/>
       <path d="M 603 4863 
L 1178 4863 
L 1178 0 
L 603 0 
L 603 4863 
z
" id="DejaVuSans-6c" transform="scale(0.015625)"/>
       <path d="M 1959 3097 
Q 1497 3097 1228 2736 
Q 959 2375 959 1747 
Q 959 1119 1226 758 
Q 1494 397 1959 397 
Q 2419 397 2687 759 
Q 2956 1122 2956 1747 
Q 2956 2369 2687 2733 
Q 2419 3097 1959 3097 
z
M 1959 3584 
Q 2709 3584 3137 3096 
Q 3566 2609 3566 1747 
Q 3566 888 3137 398 
Q 2709 -91 1959 -91 
Q 1206 -91 779 398 
Q 353 888 353 1747 
Q 353 2609 779 3096 
Q 1206 3584 1959 3584 
z
" id="DejaVuSans-6f" transform="scale(0.015625)"/>
       <path d="M 2906 1791 
Q 2906 2416 2648 2759 
Q 2391 3103 1925 3103 
Q 1463 3103 1205 2759 
Q 947 2416 947 1791 
Q 947 1169 1205 825 
Q 1463 481 1925 481 
Q 2391 481 2648 825 
Q 2906 1169 2906 1791 
z
M 3481 434 
Q 3481 -459 3084 -895 
Q 2688 -1331 1869 -1331 
Q 1566 -1331 1297 -1286 
Q 1028 -1241 775 -1147 
L 775 -588 
Q 1028 -725 1275 -790 
Q 1522 -856 1778 -856 
Q 2344 -856 2625 -561 
Q 2906 -266 2906 331 
L 2906 616 
Q 2728 306 2450 153 
Q 2172 0 1784 0 
Q 1141 0 747 490 
Q 353 981 353 1791 
Q 353 2603 747 3093 
Q 1141 3584 1784 3584 
Q 2172 3584 2450 3431 
Q 2728 3278 2906 2969 
L 2906 3500 
L 3481 3500 
L 3481 434 
z
" id="DejaVuSans-67" transform="scale(0.015625)"/>
       <path d="M 488 319 
L 1125 319 
L 1125 2229 
L 428 2101 
L 428 2463 
L 1147 2585 
L 1575 2585 
L 1575 319 
L 2216 319 
L 2216 -24 
L 488 -24 
L 488 319 
z
" id="DejaVuSans-2081" transform="scale(0.015625)"/>
       <path d="M 1781 2091 
Q 1625 2360 1309 2360 
Q 994 2360 838 2091 
Q 678 1822 678 1285 
Q 678 744 838 476 
Q 994 207 1309 207 
Q 1625 207 1781 476 
Q 1941 744 1941 1285 
Q 1941 1822 1781 2091 
z
M 1309 2638 
Q 1813 2638 2078 2291 
Q 2344 1944 2344 1285 
Q 2344 622 2078 275 
Q 1813 -71 1309 -71 
Q 803 -71 537 275 
Q 272 622 272 1285 
Q 272 1944 537 2291 
Q 803 2638 1309 2638 
z
" id="DejaVuSans-2080" transform="scale(0.015625)"/>
       <path d="M 1984 4856 
Q 1566 4138 1362 3434 
Q 1159 2731 1159 2009 
Q 1159 1288 1364 580 
Q 1569 -128 1984 -844 
L 1484 -844 
Q 1016 -109 783 600 
Q 550 1309 550 2009 
Q 550 2706 781 3412 
Q 1013 4119 1484 4856 
L 1984 4856 
z
" id="DejaVuSans-28" transform="scale(0.015625)"/>
       <path d="M 1159 525 
L 1159 -1331 
L 581 -1331 
L 581 3500 
L 1159 3500 
L 1159 2969 
Q 1341 3281 1617 3432 
Q 1894 3584 2278 3584 
Q 2916 3584 3314 3078 
Q 3713 2572 3713 1747 
Q 3713 922 3314 415 
Q 2916 -91 2278 -91 
Q 1894 -91 1617 61 
Q 1341 213 1159 525 
z
M 3116 1747 
Q 3116 2381 2855 2742 
Q 2594 3103 2138 3103 
Q 1681 3103 1420 2742 
Q 1159 2381 1159 1747 
Q 1159 1113 1420 752 
Q 1681 391 2138 391 
Q 2594 391 2855 752 
Q 3116 1113 3116 1747 
z
" id="DejaVuSans-70" transform="scale(0.015625)"/>
       <path d="M 313 2009 
L 1997 2009 
L 1997 1497 
L 313 1497 
L 313 2009 
z
" id="DejaVuSans-2010" transform="scale(0.015625)"/>
       <path d="M 191 3500 
L 800 3500 
L 1894 563 
L 2988 3500 
L 3597 3500 
L 2284 0 
L 1503 0 
L 191 3500 
z
" id="DejaVuSans-76" transform="scale(0.015625)"/>
       <path d="M 2194 1759 
Q 1497 1759 1228 1600 
Q 959 1441 959 1056 
Q 959 750 1161 570 
Q 1363 391 1709 391 
Q 2188 391 2477 730 
Q 2766 1069 2766 1631 
L 2766 1759 
L 2194 1759 
z
M 3341 1997 
L 3341 0 
L 2766 0 
L 2766 531 
Q 2569 213 2275 61 
Q 1981 -91 1556 -91 
Q 1019 -91 701 211 
Q 384 513 384 1019 
Q 384 1609 779 1909 
Q 1175 2209 1959 2209 
L 2766 2209 
L 2766 2266 
Q 2766 2663 2505 2880 
Q 2244 3097 1772 3097 
Q 1472 3097 1187 3025 
Q 903 2953 641 2809 
L 641 3341 
Q 956 3463 1253 3523 
Q 1550 3584 1831 3584 
Q 2591 3584 2966 3190 
Q 3341 2797 3341 1997 
z
" id="DejaVuSans-61" transform="scale(0.015625)"/>
       <path d="M 544 1381 
L 544 3500 
L 1119 3500 
L 1119 1403 
Q 1119 906 1312 657 
Q 1506 409 1894 409 
Q 2359 409 2629 706 
Q 2900 1003 2900 1516 
L 2900 3500 
L 3475 3500 
L 3475 0 
L 2900 0 
L 2900 538 
Q 2691 219 2414 64 
Q 2138 -91 1772 -91 
Q 1169 -91 856 284 
Q 544 659 544 1381 
z
M 1991 3584 
L 1991 3584 
z
" id="DejaVuSans-75" transform="scale(0.015625)"/>
       <path d="M 3597 1894 
L 3597 1613 
L 953 1613 
Q 991 1019 1311 708 
Q 1631 397 2203 397 
Q 2534 397 2845 478 
Q 3156 559 3463 722 
L 3463 178 
Q 3153 47 2828 -22 
Q 2503 -91 2169 -91 
Q 1331 -91 842 396 
Q 353 884 353 1716 
Q 353 2575 817 3079 
Q 1281 3584 2069 3584 
Q 2775 3584 3186 3129 
Q 3597 2675 3597 1894 
z
M 3022 2063 
Q 3016 2534 2758 2815 
Q 2500 3097 2075 3097 
Q 1594 3097 1305 2825 
Q 1016 2553 972 2059 
L 3022 2063 
z
" id="DejaVuSans-65" transform="scale(0.015625)"/>
       <path d="M 513 4856 
L 1013 4856 
Q 1481 4119 1714 3412 
Q 1947 2706 1947 2009 
Q 1947 1309 1714 600 
Q 1481 -109 1013 -844 
L 513 -844 
Q 928 -128 1133 580 
Q 1338 1288 1338 2009 
Q 1338 2731 1133 3434 
Q 928 4138 513 4856 
z
" id="DejaVuSans-29" transform="scale(0.015625)"/>
      </defs>
      <use xlink:href="#DejaVuSans-2212"/>
      <use x="83.789062" xlink:href="#DejaVuSans-6c"/>
      <use x="111.572266" xlink:href="#DejaVuSans-6f"/>
      <use x="172.753906" xlink:href="#DejaVuSans-67"/>
      <use x="236.230469" xlink:href="#DejaVuSans-2081"/>
      <use x="276.318359" xlink:href="#DejaVuSans-2080"/>
      <use x="316.40625" xlink:href="#DejaVuSans-28"/>
      <use x="355.419922" xlink:href="#DejaVuSans-70"/>
      <use x="418.896484" xlink:href="#DejaVuSans-2010"/>
      <use x="452.355469" xlink:href="#DejaVuSans-76"/>
      <use x="511.535156" xlink:href="#DejaVuSans-61"/>
      <use x="572.814453" xlink:href="#DejaVuSans-6c"/>
      <use x="600.597656" xlink:href="#DejaVuSans-75"/>
      <use x="663.976562" xlink:href="#DejaVuSans-65"/>
      <use x="725.5" xlink:href="#DejaVuSans-29"/>
     </g>
    </g>
   </g>
   <g id="line2d_9">
    <path clip-path="url(#pe596ecfd86)" style="fill:none;stroke:#424242;stroke-linecap:square;stroke-width:2.7;"/>
   </g>
   <g id="line2d_10">
    <path clip-path="url(#pe596ecfd86)" style="fill:none;stroke:#424242;stroke-linecap:square;stroke-width:2.7;"/>
   </g>
   <g id="line2d_11">
    <path clip-path="url(#pe596ecfd86)" style="fill:none;stroke:#424242;stroke-linecap:square;stroke-width:2.7;"/>
   </g>
   <g id="line2d_12">
    <path clip-path="url(#pe596ecfd86)" style="fill:none;stroke:#424242;stroke-linecap:square;stroke-width:2.7;"/>
   </g>
   <g id="line2d_13">
    <path clip-path="url(#pe596ecfd86)" style="fill:none;stroke:#424242;stroke-linecap:square;stroke-width:2.7;"/>
   </g>
   <g id="line2d_14">
    <path clip-path="url(#pe596ecfd86)" style="fill:none;stroke:#424242;stroke-linecap:square;stroke-width:2.7;"/>
   </g>
   <g id="line2d_15">
    <path clip-path="url(#pe596ecfd86)" style="fill:none;stroke:#424242;stroke-linecap:square;stroke-width:2.7;"/>
   </g>
   <g id="line2d_16">
    <path clip-path="url(#pe596ecfd86)" style="fill:none;stroke:#424242;stroke-linecap:square;stroke-width:2.7;"/>
   </g>
   <g id="line2d_17">
    <path clip-path="url(#pe596ecfd86)" style="fill:none;stroke:#424242;stroke-linecap:square;stroke-width:2.7;"/>
   </g>
   <g id="line2d_18">
    <path clip-path="url(#pe596ecfd86)" style="fill:none;stroke:#424242;stroke-linecap:square;stroke-width:2.7;"/>
   </g>
   <g id="patch_13">
    <path d="M 13.5625 685.275938 
L 13.5625 32.955937 
" style="fill:none;stroke:#000000;stroke-linecap:square;stroke-linejoin:miter;stroke-width:0.8;"/>
   </g>
   <g id="patch_14">
    <path d="M 13.5625 685.275937 
L 1352.7625 685.275937 
" style="fill:none;stroke:#000000;stroke-linecap:square;stroke-linejoin:miter;stroke-width:0.8;"/>
   </g>
   <g id="text_10">
    <!-- MYC 22102868 ChIP-Seq CA46 Human Blood BurkittsLymphoma  *1.40e-15 -->
    <g transform="translate(20.2585 65.571937)scale(0.26 -0.26)">
     <defs>
      <path d="M 628 4666 
L 1569 4666 
L 2759 1491 
L 3956 4666 
L 4897 4666 
L 4897 0 
L 4281 0 
L 4281 4097 
L 3078 897 
L 2444 897 
L 1241 4097 
L 1241 0 
L 628 0 
L 628 4666 
z
" id="DejaVuSans-4d" transform="scale(0.015625)"/>
      <path d="M -13 4666 
L 666 4666 
L 1959 2747 
L 3244 4666 
L 3922 4666 
L 2272 2222 
L 2272 0 
L 1638 0 
L 1638 2222 
L -13 4666 
z
" id="DejaVuSans-59" transform="scale(0.015625)"/>
      <path d="M 4122 4306 
L 4122 3641 
Q 3803 3938 3442 4084 
Q 3081 4231 2675 4231 
Q 1875 4231 1450 3742 
Q 1025 3253 1025 2328 
Q 1025 1406 1450 917 
Q 1875 428 2675 428 
Q 3081 428 3442 575 
Q 3803 722 4122 1019 
L 4122 359 
Q 3791 134 3420 21 
Q 3050 -91 2638 -91 
Q 1578 -91 968 557 
Q 359 1206 359 2328 
Q 359 3453 968 4101 
Q 1578 4750 2638 4750 
Q 3056 4750 3426 4639 
Q 3797 4528 4122 4306 
z
" id="DejaVuSans-43" transform="scale(0.015625)"/>
      <path id="DejaVuSans-20" transform="scale(0.015625)"/>
      <path d="M 3513 2113 
L 3513 0 
L 2938 0 
L 2938 2094 
Q 2938 2591 2744 2837 
Q 2550 3084 2163 3084 
Q 1697 3084 1428 2787 
Q 1159 2491 1159 1978 
L 1159 0 
L 581 0 
L 581 4863 
L 1159 4863 
L 1159 2956 
Q 1366 3272 1645 3428 
Q 1925 3584 2291 3584 
Q 2894 3584 3203 3211 
Q 3513 2838 3513 2113 
z
" id="DejaVuSans-68" transform="scale(0.015625)"/>
      <path d="M 628 4666 
L 1259 4666 
L 1259 0 
L 628 0 
L 628 4666 
z
" id="DejaVuSans-49" transform="scale(0.015625)"/>
      <path d="M 1259 4147 
L 1259 2394 
L 2053 2394 
Q 2494 2394 2734 2622 
Q 2975 2850 2975 3272 
Q 2975 3691 2734 3919 
Q 2494 4147 2053 4147 
L 1259 4147 
z
M 628 4666 
L 2053 4666 
Q 2838 4666 3239 4311 
Q 3641 3956 3641 3272 
Q 3641 2581 3239 2228 
Q 2838 1875 2053 1875 
L 1259 1875 
L 1259 0 
L 628 0 
L 628 4666 
z
" id="DejaVuSans-50" transform="scale(0.015625)"/>
      <path d="M 313 2009 
L 1997 2009 
L 1997 1497 
L 313 1497 
L 313 2009 
z
" id="DejaVuSans-2d" transform="scale(0.015625)"/>
      <path d="M 3425 4513 
L 3425 3897 
Q 3066 4069 2747 4153 
Q 2428 4238 2131 4238 
Q 1616 4238 1336 4038 
Q 1056 3838 1056 3469 
Q 1056 3159 1242 3001 
Q 1428 2844 1947 2747 
L 2328 2669 
Q 3034 2534 3370 2195 
Q 3706 1856 3706 1288 
Q 3706 609 3251 259 
Q 2797 -91 1919 -91 
Q 1588 -91 1214 -16 
Q 841 59 441 206 
L 441 856 
Q 825 641 1194 531 
Q 1563 422 1919 422 
Q 2459 422 2753 634 
Q 3047 847 3047 1241 
Q 3047 1584 2836 1778 
Q 2625 1972 2144 2069 
L 1759 2144 
Q 1053 2284 737 2584 
Q 422 2884 422 3419 
Q 422 4038 858 4394 
Q 1294 4750 2059 4750 
Q 2388 4750 2728 4690 
Q 3069 4631 3425 4513 
z
" id="DejaVuSans-53" transform="scale(0.015625)"/>
      <path d="M 947 1747 
Q 947 1113 1208 752 
Q 1469 391 1925 391 
Q 2381 391 2643 752 
Q 2906 1113 2906 1747 
Q 2906 2381 2643 2742 
Q 2381 3103 1925 3103 
Q 1469 3103 1208 2742 
Q 947 2381 947 1747 
z
M 2906 525 
Q 2725 213 2448 61 
Q 2172 -91 1784 -91 
Q 1150 -91 751 415 
Q 353 922 353 1747 
Q 353 2572 751 3078 
Q 1150 3584 1784 3584 
Q 2172 3584 2448 3432 
Q 2725 3281 2906 2969 
L 2906 3500 
L 3481 3500 
L 3481 -1331 
L 2906 -1331 
L 2906 525 
z
" id="DejaVuSans-71" transform="scale(0.015625)"/>
      <path d="M 2188 4044 
L 1331 1722 
L 3047 1722 
L 2188 4044 
z
M 1831 4666 
L 2547 4666 
L 4325 0 
L 3669 0 
L 3244 1197 
L 1141 1197 
L 716 0 
L 50 0 
L 1831 4666 
z
" id="DejaVuSans-41" transform="scale(0.015625)"/>
      <path d="M 628 4666 
L 1259 4666 
L 1259 2753 
L 3553 2753 
L 3553 4666 
L 4184 4666 
L 4184 0 
L 3553 0 
L 3553 2222 
L 1259 2222 
L 1259 0 
L 628 0 
L 628 4666 
z
" id="DejaVuSans-48" transform="scale(0.015625)"/>
      <path d="M 3328 2828 
Q 3544 3216 3844 3400 
Q 4144 3584 4550 3584 
Q 5097 3584 5394 3201 
Q 5691 2819 5691 2113 
L 5691 0 
L 5113 0 
L 5113 2094 
Q 5113 2597 4934 2840 
Q 4756 3084 4391 3084 
Q 3944 3084 3684 2787 
Q 3425 2491 3425 1978 
L 3425 0 
L 2847 0 
L 2847 2094 
Q 2847 2600 2669 2842 
Q 2491 3084 2119 3084 
Q 1678 3084 1418 2786 
Q 1159 2488 1159 1978 
L 1159 0 
L 581 0 
L 581 3500 
L 1159 3500 
L 1159 2956 
Q 1356 3278 1631 3431 
Q 1906 3584 2284 3584 
Q 2666 3584 2933 3390 
Q 3200 3197 3328 2828 
z
" id="DejaVuSans-6d" transform="scale(0.015625)"/>
      <path d="M 3513 2113 
L 3513 0 
L 2938 0 
L 2938 2094 
Q 2938 2591 2744 2837 
Q 2550 3084 2163 3084 
Q 1697 3084 1428 2787 
Q 1159 2491 1159 1978 
L 1159 0 
L 581 0 
L 581 3500 
L 1159 3500 
L 1159 2956 
Q 1366 3272 1645 3428 
Q 1925 3584 2291 3584 
Q 2894 3584 3203 3211 
Q 3513 2838 3513 2113 
z
" id="DejaVuSans-6e" transform="scale(0.015625)"/>
      <path d="M 1259 2228 
L 1259 519 
L 2272 519 
Q 2781 519 3026 730 
Q 3272 941 3272 1375 
Q 3272 1813 3026 2020 
Q 2781 2228 2272 2228 
L 1259 2228 
z
M 1259 4147 
L 1259 2741 
L 2194 2741 
Q 2656 2741 2882 2914 
Q 3109 3088 3109 3444 
Q 3109 3797 2882 3972 
Q 2656 4147 2194 4147 
L 1259 4147 
z
M 628 4666 
L 2241 4666 
Q 2963 4666 3353 4366 
Q 3744 4066 3744 3513 
Q 3744 3084 3544 2831 
Q 3344 2578 2956 2516 
Q 3422 2416 3680 2098 
Q 3938 1781 3938 1306 
Q 3938 681 3513 340 
Q 3088 0 2303 0 
L 628 0 
L 628 4666 
z
" id="DejaVuSans-42" transform="scale(0.015625)"/>
      <path d="M 2906 2969 
L 2906 4863 
L 3481 4863 
L 3481 0 
L 2906 0 
L 2906 525 
Q 2725 213 2448 61 
Q 2172 -91 1784 -91 
Q 1150 -91 751 415 
Q 353 922 353 1747 
Q 353 2572 751 3078 
Q 1150 3584 1784 3584 
Q 2172 3584 2448 3432 
Q 2725 3281 2906 2969 
z
M 947 1747 
Q 947 1113 1208 752 
Q 1469 391 1925 391 
Q 2381 391 2643 752 
Q 2906 1113 2906 1747 
Q 2906 2381 2643 2742 
Q 2381 3103 1925 3103 
Q 1469 3103 1208 2742 
Q 947 2381 947 1747 
z
" id="DejaVuSans-64" transform="scale(0.015625)"/>
      <path d="M 2631 2963 
Q 2534 3019 2420 3045 
Q 2306 3072 2169 3072 
Q 1681 3072 1420 2755 
Q 1159 2438 1159 1844 
L 1159 0 
L 581 0 
L 581 3500 
L 1159 3500 
L 1159 2956 
Q 1341 3275 1631 3429 
Q 1922 3584 2338 3584 
Q 2397 3584 2469 3576 
Q 2541 3569 2628 3553 
L 2631 2963 
z
" id="DejaVuSans-72" transform="scale(0.015625)"/>
      <path d="M 581 4863 
L 1159 4863 
L 1159 1991 
L 2875 3500 
L 3609 3500 
L 1753 1863 
L 3688 0 
L 2938 0 
L 1159 1709 
L 1159 0 
L 581 0 
L 581 4863 
z
" id="DejaVuSans-6b" transform="scale(0.015625)"/>
      <path d="M 603 3500 
L 1178 3500 
L 1178 0 
L 603 0 
L 603 3500 
z
M 603 4863 
L 1178 4863 
L 1178 4134 
L 603 4134 
L 603 4863 
z
" id="DejaVuSans-69" transform="scale(0.015625)"/>
      <path d="M 1172 4494 
L 1172 3500 
L 2356 3500 
L 2356 3053 
L 1172 3053 
L 1172 1153 
Q 1172 725 1289 603 
Q 1406 481 1766 481 
L 2356 481 
L 2356 0 
L 1766 0 
Q 1100 0 847 248 
Q 594 497 594 1153 
L 594 3053 
L 172 3053 
L 172 3500 
L 594 3500 
L 594 4494 
L 1172 4494 
z
" id="DejaVuSans-74" transform="scale(0.015625)"/>
      <path d="M 2834 3397 
L 2834 2853 
Q 2591 2978 2328 3040 
Q 2066 3103 1784 3103 
Q 1356 3103 1142 2972 
Q 928 2841 928 2578 
Q 928 2378 1081 2264 
Q 1234 2150 1697 2047 
L 1894 2003 
Q 2506 1872 2764 1633 
Q 3022 1394 3022 966 
Q 3022 478 2636 193 
Q 2250 -91 1575 -91 
Q 1294 -91 989 -36 
Q 684 19 347 128 
L 347 722 
Q 666 556 975 473 
Q 1284 391 1588 391 
Q 1994 391 2212 530 
Q 2431 669 2431 922 
Q 2431 1156 2273 1281 
Q 2116 1406 1581 1522 
L 1381 1569 
Q 847 1681 609 1914 
Q 372 2147 372 2553 
Q 372 3047 722 3315 
Q 1072 3584 1716 3584 
Q 2034 3584 2315 3537 
Q 2597 3491 2834 3397 
z
" id="DejaVuSans-73" transform="scale(0.015625)"/>
      <path d="M 628 4666 
L 1259 4666 
L 1259 531 
L 3531 531 
L 3531 0 
L 628 0 
L 628 4666 
z
" id="DejaVuSans-4c" transform="scale(0.015625)"/>
      <path d="M 2059 -325 
Q 1816 -950 1584 -1140 
Q 1353 -1331 966 -1331 
L 506 -1331 
L 506 -850 
L 844 -850 
Q 1081 -850 1212 -737 
Q 1344 -625 1503 -206 
L 1606 56 
L 191 3500 
L 800 3500 
L 1894 763 
L 2988 3500 
L 3597 3500 
L 2059 -325 
z
" id="DejaVuSans-79" transform="scale(0.015625)"/>
      <path d="M 3009 3897 
L 1888 3291 
L 3009 2681 
L 2828 2375 
L 1778 3009 
L 1778 1831 
L 1422 1831 
L 1422 3009 
L 372 2375 
L 191 2681 
L 1313 3291 
L 191 3897 
L 372 4206 
L 1422 3572 
L 1422 4750 
L 1778 4750 
L 1778 3572 
L 2828 4206 
L 3009 3897 
z
" id="DejaVuSans-2a" transform="scale(0.015625)"/>
      <path d="M 684 794 
L 1344 794 
L 1344 0 
L 684 0 
L 684 794 
z
" id="DejaVuSans-2e" transform="scale(0.015625)"/>
      <path d="M 691 4666 
L 3169 4666 
L 3169 4134 
L 1269 4134 
L 1269 2991 
Q 1406 3038 1543 3061 
Q 1681 3084 1819 3084 
Q 2600 3084 3056 2656 
Q 3513 2228 3513 1497 
Q 3513 744 3044 326 
Q 2575 -91 1722 -91 
Q 1428 -91 1123 -41 
Q 819 9 494 109 
L 494 744 
Q 775 591 1075 516 
Q 1375 441 1709 441 
Q 2250 441 2565 725 
Q 2881 1009 2881 1497 
Q 2881 1984 2565 2268 
Q 2250 2553 1709 2553 
Q 1456 2553 1204 2497 
Q 953 2441 691 2322 
L 691 4666 
z
" id="DejaVuSans-35" transform="scale(0.015625)"/>
     </defs>
     <use xlink:href="#DejaVuSans-4d"/>
     <use x="86.279297" xlink:href="#DejaVuSans-59"/>
     <use x="141.863281" xlink:href="#DejaVuSans-43"/>
     <use x="211.6875" xlink:href="#DejaVuSans-20"/>
     <use x="243.474609" xlink:href="#DejaVuSans-32"/>
     <use x="307.097656" xlink:href="#DejaVuSans-32"/>
     <use x="370.720703" xlink:href="#DejaVuSans-31"/>
     <use x="434.34375" xlink:href="#DejaVuSans-30"/>
     <use x="497.966797" xlink:href="#DejaVuSans-32"/>
     <use x="561.589844" xlink:href="#DejaVuSans-38"/>
     <use x="625.212891" xlink:href="#DejaVuSans-36"/>
     <use x="688.835938" xlink:href="#DejaVuSans-38"/>
     <use x="752.458984" xlink:href="#DejaVuSans-20"/>
     <use x="784.246094" xlink:href="#DejaVuSans-43"/>
     <use x="854.070312" xlink:href="#DejaVuSans-68"/>
     <use x="917.449219" xlink:href="#DejaVuSans-49"/>
     <use x="946.941406" xlink:href="#DejaVuSans-50"/>
     <use x="1004.994141" xlink:href="#DejaVuSans-2d"/>
     <use x="1041.078125" xlink:href="#DejaVuSans-53"/>
     <use x="1104.554688" xlink:href="#DejaVuSans-65"/>
     <use x="1166.078125" xlink:href="#DejaVuSans-71"/>
     <use x="1229.554688" xlink:href="#DejaVuSans-20"/>
     <use x="1261.341797" xlink:href="#DejaVuSans-43"/>
     <use x="1331.166016" xlink:href="#DejaVuSans-41"/>
     <use x="1399.574219" xlink:href="#DejaVuSans-34"/>
     <use x="1463.197266" xlink:href="#DejaVuSans-36"/>
     <use x="1526.820312" xlink:href="#DejaVuSans-20"/>
     <use x="1558.607422" xlink:href="#DejaVuSans-48"/>
     <use x="1633.802734" xlink:href="#DejaVuSans-75"/>
     <use x="1697.181641" xlink:href="#DejaVuSans-6d"/>
     <use x="1794.59375" xlink:href="#DejaVuSans-61"/>
     <use x="1855.873047" xlink:href="#DejaVuSans-6e"/>
     <use x="1919.251953" xlink:href="#DejaVuSans-20"/>
     <use x="1951.039062" xlink:href="#DejaVuSans-42"/>
     <use x="2019.642578" xlink:href="#DejaVuSans-6c"/>
     <use x="2047.425781" xlink:href="#DejaVuSans-6f"/>
     <use x="2108.607422" xlink:href="#DejaVuSans-6f"/>
     <use x="2169.789062" xlink:href="#DejaVuSans-64"/>
     <use x="2233.265625" xlink:href="#DejaVuSans-20"/>
     <use x="2265.052734" xlink:href="#DejaVuSans-42"/>
     <use x="2333.65625" xlink:href="#DejaVuSans-75"/>
     <use x="2397.035156" xlink:href="#DejaVuSans-72"/>
     <use x="2438.148438" xlink:href="#DejaVuSans-6b"/>
     <use x="2496.058594" xlink:href="#DejaVuSans-69"/>
     <use x="2523.841797" xlink:href="#DejaVuSans-74"/>
     <use x="2563.050781" xlink:href="#DejaVuSans-74"/>
     <use x="2602.259766" xlink:href="#DejaVuSans-73"/>
     <use x="2654.359375" xlink:href="#DejaVuSans-4c"/>
     <use x="2700.947266" xlink:href="#DejaVuSans-79"/>
     <use x="2760.126953" xlink:href="#DejaVuSans-6d"/>
     <use x="2857.539062" xlink:href="#DejaVuSans-70"/>
     <use x="2921.015625" xlink:href="#DejaVuSans-68"/>
     <use x="2984.394531" xlink:href="#DejaVuSans-6f"/>
     <use x="3045.576172" xlink:href="#DejaVuSans-6d"/>
     <use x="3142.988281" xlink:href="#DejaVuSans-61"/>
     <use x="3204.267578" xlink:href="#DejaVuSans-20"/>
     <use x="3236.054688" xlink:href="#DejaVuSans-20"/>
     <use x="3267.841797" xlink:href="#DejaVuSans-2a"/>
     <use x="3317.841797" xlink:href="#DejaVuSans-31"/>
     <use x="3381.464844" xlink:href="#DejaVuSans-2e"/>
     <use x="3413.251953" xlink:href="#DejaVuSans-34"/>
     <use x="3476.875" xlink:href="#DejaVuSans-30"/>
     <use x="3540.498047" xlink:href="#DejaVuSans-65"/>
     <use x="3602.021484" xlink:href="#DejaVuSans-2d"/>
     <use x="3638.105469" xlink:href="#DejaVuSans-31"/>
     <use x="3701.728516" xlink:href="#DejaVuSans-35"/>
    </g>
   </g>
   <g id="text_11">
    <!-- NELFA 20434984 ChIP-Seq ESCs Mouse  *4.72e-15 -->
    <g transform="translate(20.2585 130.803937)scale(0.26 -0.26)">
     <defs>
      <path d="M 628 4666 
L 1478 4666 
L 3547 763 
L 3547 4666 
L 4159 4666 
L 4159 0 
L 3309 0 
L 1241 3903 
L 1241 0 
L 628 0 
L 628 4666 
z
" id="DejaVuSans-4e" transform="scale(0.015625)"/>
      <path d="M 628 4666 
L 3578 4666 
L 3578 4134 
L 1259 4134 
L 1259 2753 
L 3481 2753 
L 3481 2222 
L 1259 2222 
L 1259 531 
L 3634 531 
L 3634 0 
L 628 0 
L 628 4666 
z
" id="DejaVuSans-45" transform="scale(0.015625)"/>
      <path d="M 628 4666 
L 3309 4666 
L 3309 4134 
L 1259 4134 
L 1259 2759 
L 3109 2759 
L 3109 2228 
L 1259 2228 
L 1259 0 
L 628 0 
L 628 4666 
z
" id="DejaVuSans-46" transform="scale(0.015625)"/>
      <path d="M 2597 2516 
Q 3050 2419 3304 2112 
Q 3559 1806 3559 1356 
Q 3559 666 3084 287 
Q 2609 -91 1734 -91 
Q 1441 -91 1130 -33 
Q 819 25 488 141 
L 488 750 
Q 750 597 1062 519 
Q 1375 441 1716 441 
Q 2309 441 2620 675 
Q 2931 909 2931 1356 
Q 2931 1769 2642 2001 
Q 2353 2234 1838 2234 
L 1294 2234 
L 1294 2753 
L 1863 2753 
Q 2328 2753 2575 2939 
Q 2822 3125 2822 3475 
Q 2822 3834 2567 4026 
Q 2313 4219 1838 4219 
Q 1578 4219 1281 4162 
Q 984 4106 628 3988 
L 628 4550 
Q 988 4650 1302 4700 
Q 1616 4750 1894 4750 
Q 2613 4750 3031 4423 
Q 3450 4097 3450 3541 
Q 3450 3153 3228 2886 
Q 3006 2619 2597 2516 
z
" id="DejaVuSans-33" transform="scale(0.015625)"/>
      <path d="M 703 97 
L 703 672 
Q 941 559 1184 500 
Q 1428 441 1663 441 
Q 2288 441 2617 861 
Q 2947 1281 2994 2138 
Q 2813 1869 2534 1725 
Q 2256 1581 1919 1581 
Q 1219 1581 811 2004 
Q 403 2428 403 3163 
Q 403 3881 828 4315 
Q 1253 4750 1959 4750 
Q 2769 4750 3195 4129 
Q 3622 3509 3622 2328 
Q 3622 1225 3098 567 
Q 2575 -91 1691 -91 
Q 1453 -91 1209 -44 
Q 966 3 703 97 
z
M 1959 2075 
Q 2384 2075 2632 2365 
Q 2881 2656 2881 3163 
Q 2881 3666 2632 3958 
Q 2384 4250 1959 4250 
Q 1534 4250 1286 3958 
Q 1038 3666 1038 3163 
Q 1038 2656 1286 2365 
Q 1534 2075 1959 2075 
z
" id="DejaVuSans-39" transform="scale(0.015625)"/>
      <path d="M 525 4666 
L 3525 4666 
L 3525 4397 
L 1831 0 
L 1172 0 
L 2766 4134 
L 525 4134 
L 525 4666 
z
" id="DejaVuSans-37" transform="scale(0.015625)"/>
     </defs>
     <use xlink:href="#DejaVuSans-4e"/>
     <use x="74.804688" xlink:href="#DejaVuSans-45"/>
     <use x="137.988281" xlink:href="#DejaVuSans-4c"/>
     <use x="193.701172" xlink:href="#DejaVuSans-46"/>
     <use x="242.095703" xlink:href="#DejaVuSans-41"/>
     <use x="310.503906" xlink:href="#DejaVuSans-20"/>
     <use x="342.291016" xlink:href="#DejaVuSans-32"/>
     <use x="405.914062" xlink:href="#DejaVuSans-30"/>
     <use x="469.537109" xlink:href="#DejaVuSans-34"/>
     <use x="533.160156" xlink:href="#DejaVuSans-33"/>
     <use x="596.783203" xlink:href="#DejaVuSans-34"/>
     <use x="660.40625" xlink:href="#DejaVuSans-39"/>
     <use x="724.029297" xlink:href="#DejaVuSans-38"/>
     <use x="787.652344" xlink:href="#DejaVuSans-34"/>
     <use x="851.275391" xlink:href="#DejaVuSans-20"/>
     <use x="883.0625" xlink:href="#DejaVuSans-43"/>
     <use x="952.886719" xlink:href="#DejaVuSans-68"/>
     <use x="1016.265625" xlink:href="#DejaVuSans-49"/>
     <use x="1045.757812" xlink:href="#DejaVuSans-50"/>
     <use x="1103.810547" xlink:href="#DejaVuSans-2d"/>
     <use x="1139.894531" xlink:href="#DejaVuSans-53"/>
     <use x="1203.371094" xlink:href="#DejaVuSans-65"/>
     <use x="1264.894531" xlink:href="#DejaVuSans-71"/>
     <use x="1328.371094" xlink:href="#DejaVuSans-20"/>
     <use x="1360.158203" xlink:href="#DejaVuSans-45"/>
     <use x="1423.341797" xlink:href="#DejaVuSans-53"/>
     <use x="1486.818359" xlink:href="#DejaVuSans-43"/>
     <use x="1556.642578" xlink:href="#DejaVuSans-73"/>
     <use x="1608.742188" xlink:href="#DejaVuSans-20"/>
     <use x="1640.529297" xlink:href="#DejaVuSans-4d"/>
     <use x="1726.808594" xlink:href="#DejaVuSans-6f"/>
     <use x="1787.990234" xlink:href="#DejaVuSans-75"/>
     <use x="1851.369141" xlink:href="#DejaVuSans-73"/>
     <use x="1903.46875" xlink:href="#DejaVuSans-65"/>
     <use x="1964.992188" xlink:href="#DejaVuSans-20"/>
     <use x="1996.779297" xlink:href="#DejaVuSans-20"/>
     <use x="2028.566406" xlink:href="#DejaVuSans-2a"/>
     <use x="2078.566406" xlink:href="#DejaVuSans-34"/>
     <use x="2142.189453" xlink:href="#DejaVuSans-2e"/>
     <use x="2173.976562" xlink:href="#DejaVuSans-37"/>
     <use x="2237.599609" xlink:href="#DejaVuSans-32"/>
     <use x="2301.222656" xlink:href="#DejaVuSans-65"/>
     <use x="2362.746094" xlink:href="#DejaVuSans-2d"/>
     <use x="2398.830078" xlink:href="#DejaVuSans-31"/>
     <use x="2462.453125" xlink:href="#DejaVuSans-35"/>
    </g>
   </g>
   <g id="text_12">
    <!-- MYC 28411283 ChIP-Seq MDA231-LM2-4175 Human BreastCancer  *1.09e-14 -->
    <g transform="translate(20.2585 196.035937)scale(0.26 -0.26)">
     <defs>
      <path d="M 1259 4147 
L 1259 519 
L 2022 519 
Q 2988 519 3436 956 
Q 3884 1394 3884 2338 
Q 3884 3275 3436 3711 
Q 2988 4147 2022 4147 
L 1259 4147 
z
M 628 4666 
L 1925 4666 
Q 3281 4666 3915 4102 
Q 4550 3538 4550 2338 
Q 4550 1131 3912 565 
Q 3275 0 1925 0 
L 628 0 
L 628 4666 
z
" id="DejaVuSans-44" transform="scale(0.015625)"/>
      <path d="M 3122 3366 
L 3122 2828 
Q 2878 2963 2633 3030 
Q 2388 3097 2138 3097 
Q 1578 3097 1268 2742 
Q 959 2388 959 1747 
Q 959 1106 1268 751 
Q 1578 397 2138 397 
Q 2388 397 2633 464 
Q 2878 531 3122 666 
L 3122 134 
Q 2881 22 2623 -34 
Q 2366 -91 2075 -91 
Q 1284 -91 818 406 
Q 353 903 353 1747 
Q 353 2603 823 3093 
Q 1294 3584 2113 3584 
Q 2378 3584 2631 3529 
Q 2884 3475 3122 3366 
z
" id="DejaVuSans-63" transform="scale(0.015625)"/>
     </defs>
     <use xlink:href="#DejaVuSans-4d"/>
     <use x="86.279297" xlink:href="#DejaVuSans-59"/>
     <use x="141.863281" xlink:href="#DejaVuSans-43"/>
     <use x="211.6875" xlink:href="#DejaVuSans-20"/>
     <use x="243.474609" xlink:href="#DejaVuSans-32"/>
     <use x="307.097656" xlink:href="#DejaVuSans-38"/>
     <use x="370.720703" xlink:href="#DejaVuSans-34"/>
     <use x="434.34375" xlink:href="#DejaVuSans-31"/>
     <use x="497.966797" xlink:href="#DejaVuSans-31"/>
     <use x="561.589844" xlink:href="#DejaVuSans-32"/>
     <use x="625.212891" xlink:href="#DejaVuSans-38"/>
     <use x="688.835938" xlink:href="#DejaVuSans-33"/>
     <use x="752.458984" xlink:href="#DejaVuSans-20"/>
     <use x="784.246094" xlink:href="#DejaVuSans-43"/>
     <use x="854.070312" xlink:href="#DejaVuSans-68"/>
     <use x="917.449219" xlink:href="#DejaVuSans-49"/>
     <use x="946.941406" xlink:href="#DejaVuSans-50"/>
     <use x="1004.994141" xlink:href="#DejaVuSans-2d"/>
     <use x="1041.078125" xlink:href="#DejaVuSans-53"/>
     <use x="1104.554688" xlink:href="#DejaVuSans-65"/>
     <use x="1166.078125" xlink:href="#DejaVuSans-71"/>
     <use x="1229.554688" xlink:href="#DejaVuSans-20"/>
     <use x="1261.341797" xlink:href="#DejaVuSans-4d"/>
     <use x="1347.621094" xlink:href="#DejaVuSans-44"/>
     <use x="1422.873047" xlink:href="#DejaVuSans-41"/>
     <use x="1491.28125" xlink:href="#DejaVuSans-32"/>
     <use x="1554.904297" xlink:href="#DejaVuSans-33"/>
     <use x="1618.527344" xlink:href="#DejaVuSans-31"/>
     <use x="1682.150391" xlink:href="#DejaVuSans-2d"/>
     <use x="1718.234375" xlink:href="#DejaVuSans-4c"/>
     <use x="1773.947266" xlink:href="#DejaVuSans-4d"/>
     <use x="1860.226562" xlink:href="#DejaVuSans-32"/>
     <use x="1923.849609" xlink:href="#DejaVuSans-2d"/>
     <use x="1959.933594" xlink:href="#DejaVuSans-34"/>
     <use x="2023.556641" xlink:href="#DejaVuSans-31"/>
     <use x="2087.179688" xlink:href="#DejaVuSans-37"/>
     <use x="2150.802734" xlink:href="#DejaVuSans-35"/>
     <use x="2214.425781" xlink:href="#DejaVuSans-20"/>
     <use x="2246.212891" xlink:href="#DejaVuSans-48"/>
     <use x="2321.408203" xlink:href="#DejaVuSans-75"/>
     <use x="2384.787109" xlink:href="#DejaVuSans-6d"/>
     <use x="2482.199219" xlink:href="#DejaVuSans-61"/>
     <use x="2543.478516" xlink:href="#DejaVuSans-6e"/>
     <use x="2606.857422" xlink:href="#DejaVuSans-20"/>
     <use x="2638.644531" xlink:href="#DejaVuSans-42"/>
     <use x="2707.248047" xlink:href="#DejaVuSans-72"/>
     <use x="2746.111328" xlink:href="#DejaVuSans-65"/>
     <use x="2807.634766" xlink:href="#DejaVuSans-61"/>
     <use x="2868.914062" xlink:href="#DejaVuSans-73"/>
     <use x="2921.013672" xlink:href="#DejaVuSans-74"/>
     <use x="2960.222656" xlink:href="#DejaVuSans-43"/>
     <use x="3030.046875" xlink:href="#DejaVuSans-61"/>
     <use x="3091.326172" xlink:href="#DejaVuSans-6e"/>
     <use x="3154.705078" xlink:href="#DejaVuSans-63"/>
     <use x="3209.685547" xlink:href="#DejaVuSans-65"/>
     <use x="3271.208984" xlink:href="#DejaVuSans-72"/>
     <use x="3312.322266" xlink:href="#DejaVuSans-20"/>
     <use x="3344.109375" xlink:href="#DejaVuSans-20"/>
     <use x="3375.896484" xlink:href="#DejaVuSans-2a"/>
     <use x="3425.896484" xlink:href="#DejaVuSans-31"/>
     <use x="3489.519531" xlink:href="#DejaVuSans-2e"/>
     <use x="3521.306641" xlink:href="#DejaVuSans-30"/>
     <use x="3584.929688" xlink:href="#DejaVuSans-39"/>
     <use x="3648.552734" xlink:href="#DejaVuSans-65"/>
     <use x="3710.076172" xlink:href="#DejaVuSans-2d"/>
     <use x="3746.160156" xlink:href="#DejaVuSans-31"/>
     <use x="3809.783203" xlink:href="#DejaVuSans-34"/>
    </g>
   </g>
   <g id="text_13">
    <!-- KDM5B 21448134 ChIP-Seq MESCs Mouse  *2.19e-14 -->
    <g transform="translate(20.2585 261.267937)scale(0.26 -0.26)">
     <defs>
      <path d="M 628 4666 
L 1259 4666 
L 1259 2694 
L 3353 4666 
L 4166 4666 
L 1850 2491 
L 4331 0 
L 3500 0 
L 1259 2247 
L 1259 0 
L 628 0 
L 628 4666 
z
" id="DejaVuSans-4b" transform="scale(0.015625)"/>
     </defs>
     <use xlink:href="#DejaVuSans-4b"/>
     <use x="65.576172" xlink:href="#DejaVuSans-44"/>
     <use x="142.578125" xlink:href="#DejaVuSans-4d"/>
     <use x="228.857422" xlink:href="#DejaVuSans-35"/>
     <use x="292.480469" xlink:href="#DejaVuSans-42"/>
     <use x="361.083984" xlink:href="#DejaVuSans-20"/>
     <use x="392.871094" xlink:href="#DejaVuSans-32"/>
     <use x="456.494141" xlink:href="#DejaVuSans-31"/>
     <use x="520.117188" xlink:href="#DejaVuSans-34"/>
     <use x="583.740234" xlink:href="#DejaVuSans-34"/>
     <use x="647.363281" xlink:href="#DejaVuSans-38"/>
     <use x="710.986328" xlink:href="#DejaVuSans-31"/>
     <use x="774.609375" xlink:href="#DejaVuSans-33"/>
     <use x="838.232422" xlink:href="#DejaVuSans-34"/>
     <use x="901.855469" xlink:href="#DejaVuSans-20"/>
     <use x="933.642578" xlink:href="#DejaVuSans-43"/>
     <use x="1003.466797" xlink:href="#DejaVuSans-68"/>
     <use x="1066.845703" xlink:href="#DejaVuSans-49"/>
     <use x="1096.337891" xlink:href="#DejaVuSans-50"/>
     <use x="1154.390625" xlink:href="#DejaVuSans-2d"/>
     <use x="1190.474609" xlink:href="#DejaVuSans-53"/>
     <use x="1253.951172" xlink:href="#DejaVuSans-65"/>
     <use x="1315.474609" xlink:href="#DejaVuSans-71"/>
     <use x="1378.951172" xlink:href="#DejaVuSans-20"/>
     <use x="1410.738281" xlink:href="#DejaVuSans-4d"/>
     <use x="1497.017578" xlink:href="#DejaVuSans-45"/>
     <use x="1560.201172" xlink:href="#DejaVuSans-53"/>
     <use x="1623.677734" xlink:href="#DejaVuSans-43"/>
     <use x="1693.501953" xlink:href="#DejaVuSans-73"/>
     <use x="1745.601562" xlink:href="#DejaVuSans-20"/>
     <use x="1777.388672" xlink:href="#DejaVuSans-4d"/>
     <use x="1863.667969" xlink:href="#DejaVuSans-6f"/>
     <use x="1924.849609" xlink:href="#DejaVuSans-75"/>
     <use x="1988.228516" xlink:href="#DejaVuSans-73"/>
     <use x="2040.328125" xlink:href="#DejaVuSans-65"/>
     <use x="2101.851562" xlink:href="#DejaVuSans-20"/>
     <use x="2133.638672" xlink:href="#DejaVuSans-20"/>
     <use x="2165.425781" xlink:href="#DejaVuSans-2a"/>
     <use x="2215.425781" xlink:href="#DejaVuSans-32"/>
     <use x="2279.048828" xlink:href="#DejaVuSans-2e"/>
     <use x="2310.835938" xlink:href="#DejaVuSans-31"/>
     <use x="2374.458984" xlink:href="#DejaVuSans-39"/>
     <use x="2438.082031" xlink:href="#DejaVuSans-65"/>
     <use x="2499.605469" xlink:href="#DejaVuSans-2d"/>
     <use x="2535.689453" xlink:href="#DejaVuSans-31"/>
     <use x="2599.3125" xlink:href="#DejaVuSans-34"/>
    </g>
   </g>
   <g id="text_14">
    <!-- CREM 20920259 ChIP-Seq GC1-SPG Mouse  *2.37e-14 -->
    <g transform="translate(20.2585 326.499937)scale(0.26 -0.26)">
     <defs>
      <path d="M 2841 2188 
Q 3044 2119 3236 1894 
Q 3428 1669 3622 1275 
L 4263 0 
L 3584 0 
L 2988 1197 
Q 2756 1666 2539 1819 
Q 2322 1972 1947 1972 
L 1259 1972 
L 1259 0 
L 628 0 
L 628 4666 
L 2053 4666 
Q 2853 4666 3247 4331 
Q 3641 3997 3641 3322 
Q 3641 2881 3436 2590 
Q 3231 2300 2841 2188 
z
M 1259 4147 
L 1259 2491 
L 2053 2491 
Q 2509 2491 2742 2702 
Q 2975 2913 2975 3322 
Q 2975 3731 2742 3939 
Q 2509 4147 2053 4147 
L 1259 4147 
z
" id="DejaVuSans-52" transform="scale(0.015625)"/>
      <path d="M 3809 666 
L 3809 1919 
L 2778 1919 
L 2778 2438 
L 4434 2438 
L 4434 434 
Q 4069 175 3628 42 
Q 3188 -91 2688 -91 
Q 1594 -91 976 548 
Q 359 1188 359 2328 
Q 359 3472 976 4111 
Q 1594 4750 2688 4750 
Q 3144 4750 3555 4637 
Q 3966 4525 4313 4306 
L 4313 3634 
Q 3963 3931 3569 4081 
Q 3175 4231 2741 4231 
Q 1884 4231 1454 3753 
Q 1025 3275 1025 2328 
Q 1025 1384 1454 906 
Q 1884 428 2741 428 
Q 3075 428 3337 486 
Q 3600 544 3809 666 
z
" id="DejaVuSans-47" transform="scale(0.015625)"/>
     </defs>
     <use xlink:href="#DejaVuSans-43"/>
     <use x="69.824219" xlink:href="#DejaVuSans-52"/>
     <use x="139.306641" xlink:href="#DejaVuSans-45"/>
     <use x="202.490234" xlink:href="#DejaVuSans-4d"/>
     <use x="288.769531" xlink:href="#DejaVuSans-20"/>
     <use x="320.556641" xlink:href="#DejaVuSans-32"/>
     <use x="384.179688" xlink:href="#DejaVuSans-30"/>
     <use x="447.802734" xlink:href="#DejaVuSans-39"/>
     <use x="511.425781" xlink:href="#DejaVuSans-32"/>
     <use x="575.048828" xlink:href="#DejaVuSans-30"/>
     <use x="638.671875" xlink:href="#DejaVuSans-32"/>
     <use x="702.294922" xlink:href="#DejaVuSans-35"/>
     <use x="765.917969" xlink:href="#DejaVuSans-39"/>
     <use x="829.541016" xlink:href="#DejaVuSans-20"/>
     <use x="861.328125" xlink:href="#DejaVuSans-43"/>
     <use x="931.152344" xlink:href="#DejaVuSans-68"/>
     <use x="994.53125" xlink:href="#DejaVuSans-49"/>
     <use x="1024.023438" xlink:href="#DejaVuSans-50"/>
     <use x="1082.076172" xlink:href="#DejaVuSans-2d"/>
     <use x="1118.160156" xlink:href="#DejaVuSans-53"/>
     <use x="1181.636719" xlink:href="#DejaVuSans-65"/>
     <use x="1243.160156" xlink:href="#DejaVuSans-71"/>
     <use x="1306.636719" xlink:href="#DejaVuSans-20"/>
     <use x="1338.423828" xlink:href="#DejaVuSans-47"/>
     <use x="1415.914062" xlink:href="#DejaVuSans-43"/>
     <use x="1485.738281" xlink:href="#DejaVuSans-31"/>
     <use x="1549.361328" xlink:href="#DejaVuSans-2d"/>
     <use x="1585.445312" xlink:href="#DejaVuSans-53"/>
     <use x="1648.921875" xlink:href="#DejaVuSans-50"/>
     <use x="1709.224609" xlink:href="#DejaVuSans-47"/>
     <use x="1786.714844" xlink:href="#DejaVuSans-20"/>
     <use x="1818.501953" xlink:href="#DejaVuSans-4d"/>
     <use x="1904.78125" xlink:href="#DejaVuSans-6f"/>
     <use x="1965.962891" xlink:href="#DejaVuSans-75"/>
     <use x="2029.341797" xlink:href="#DejaVuSans-73"/>
     <use x="2081.441406" xlink:href="#DejaVuSans-65"/>
     <use x="2142.964844" xlink:href="#DejaVuSans-20"/>
     <use x="2174.751953" xlink:href="#DejaVuSans-20"/>
     <use x="2206.539062" xlink:href="#DejaVuSans-2a"/>
     <use x="2256.539062" xlink:href="#DejaVuSans-32"/>
     <use x="2320.162109" xlink:href="#DejaVuSans-2e"/>
     <use x="2351.949219" xlink:href="#DejaVuSans-33"/>
     <use x="2415.572266" xlink:href="#DejaVuSans-37"/>
     <use x="2479.195312" xlink:href="#DejaVuSans-65"/>
     <use x="2540.71875" xlink:href="#DejaVuSans-2d"/>
     <use x="2576.802734" xlink:href="#DejaVuSans-31"/>
     <use x="2640.425781" xlink:href="#DejaVuSans-34"/>
    </g>
   </g>
   <g id="text_15">
    <!-- XRN2 22483619 ChIP-Seq HELA Human  *3.5e-14 -->
    <g transform="translate(20.2585 391.731937)scale(0.26 -0.26)">
     <defs>
      <path d="M 403 4666 
L 1081 4666 
L 2241 2931 
L 3406 4666 
L 4084 4666 
L 2584 2425 
L 4184 0 
L 3506 0 
L 2194 1984 
L 872 0 
L 191 0 
L 1856 2491 
L 403 4666 
z
" id="DejaVuSans-58" transform="scale(0.015625)"/>
     </defs>
     <use xlink:href="#DejaVuSans-58"/>
     <use x="68.505859" xlink:href="#DejaVuSans-52"/>
     <use x="137.988281" xlink:href="#DejaVuSans-4e"/>
     <use x="212.792969" xlink:href="#DejaVuSans-32"/>
     <use x="276.416016" xlink:href="#DejaVuSans-20"/>
     <use x="308.203125" xlink:href="#DejaVuSans-32"/>
     <use x="371.826172" xlink:href="#DejaVuSans-32"/>
     <use x="435.449219" xlink:href="#DejaVuSans-34"/>
     <use x="499.072266" xlink:href="#DejaVuSans-38"/>
     <use x="562.695312" xlink:href="#DejaVuSans-33"/>
     <use x="626.318359" xlink:href="#DejaVuSans-36"/>
     <use x="689.941406" xlink:href="#DejaVuSans-31"/>
     <use x="753.564453" xlink:href="#DejaVuSans-39"/>
     <use x="817.1875" xlink:href="#DejaVuSans-20"/>
     <use x="848.974609" xlink:href="#DejaVuSans-43"/>
     <use x="918.798828" xlink:href="#DejaVuSans-68"/>
     <use x="982.177734" xlink:href="#DejaVuSans-49"/>
     <use x="1011.669922" xlink:href="#DejaVuSans-50"/>
     <use x="1069.722656" xlink:href="#DejaVuSans-2d"/>
     <use x="1105.806641" xlink:href="#DejaVuSans-53"/>
     <use x="1169.283203" xlink:href="#DejaVuSans-65"/>
     <use x="1230.806641" xlink:href="#DejaVuSans-71"/>
     <use x="1294.283203" xlink:href="#DejaVuSans-20"/>
     <use x="1326.070312" xlink:href="#DejaVuSans-48"/>
     <use x="1401.265625" xlink:href="#DejaVuSans-45"/>
     <use x="1464.449219" xlink:href="#DejaVuSans-4c"/>
     <use x="1522.412109" xlink:href="#DejaVuSans-41"/>
     <use x="1590.820312" xlink:href="#DejaVuSans-20"/>
     <use x="1622.607422" xlink:href="#DejaVuSans-48"/>
     <use x="1697.802734" xlink:href="#DejaVuSans-75"/>
     <use x="1761.181641" xlink:href="#DejaVuSans-6d"/>
     <use x="1858.59375" xlink:href="#DejaVuSans-61"/>
     <use x="1919.873047" xlink:href="#DejaVuSans-6e"/>
     <use x="1983.251953" xlink:href="#DejaVuSans-20"/>
     <use x="2015.039062" xlink:href="#DejaVuSans-20"/>
     <use x="2046.826172" xlink:href="#DejaVuSans-2a"/>
     <use x="2096.826172" xlink:href="#DejaVuSans-33"/>
     <use x="2160.449219" xlink:href="#DejaVuSans-2e"/>
     <use x="2192.236328" xlink:href="#DejaVuSans-35"/>
     <use x="2255.859375" xlink:href="#DejaVuSans-65"/>
     <use x="2317.382812" xlink:href="#DejaVuSans-2d"/>
     <use x="2353.466797" xlink:href="#DejaVuSans-31"/>
     <use x="2417.089844" xlink:href="#DejaVuSans-34"/>
    </g>
   </g>
   <g id="text_16">
    <!-- AF4 26711339 ChIP-Seq SEM Human Blood Leukemia  *4.25e-14 -->
    <g transform="translate(20.2585 456.963937)scale(0.26 -0.26)">
     <use xlink:href="#DejaVuSans-41"/>
     <use x="68.408203" xlink:href="#DejaVuSans-46"/>
     <use x="125.927734" xlink:href="#DejaVuSans-34"/>
     <use x="189.550781" xlink:href="#DejaVuSans-20"/>
     <use x="221.337891" xlink:href="#DejaVuSans-32"/>
     <use x="284.960938" xlink:href="#DejaVuSans-36"/>
     <use x="348.583984" xlink:href="#DejaVuSans-37"/>
     <use x="412.207031" xlink:href="#DejaVuSans-31"/>
     <use x="475.830078" xlink:href="#DejaVuSans-31"/>
     <use x="539.453125" xlink:href="#DejaVuSans-33"/>
     <use x="603.076172" xlink:href="#DejaVuSans-33"/>
     <use x="666.699219" xlink:href="#DejaVuSans-39"/>
     <use x="730.322266" xlink:href="#DejaVuSans-20"/>
     <use x="762.109375" xlink:href="#DejaVuSans-43"/>
     <use x="831.933594" xlink:href="#DejaVuSans-68"/>
     <use x="895.3125" xlink:href="#DejaVuSans-49"/>
     <use x="924.804688" xlink:href="#DejaVuSans-50"/>
     <use x="982.857422" xlink:href="#DejaVuSans-2d"/>
     <use x="1018.941406" xlink:href="#DejaVuSans-53"/>
     <use x="1082.417969" xlink:href="#DejaVuSans-65"/>
     <use x="1143.941406" xlink:href="#DejaVuSans-71"/>
     <use x="1207.417969" xlink:href="#DejaVuSans-20"/>
     <use x="1239.205078" xlink:href="#DejaVuSans-53"/>
     <use x="1302.681641" xlink:href="#DejaVuSans-45"/>
     <use x="1365.865234" xlink:href="#DejaVuSans-4d"/>
     <use x="1452.144531" xlink:href="#DejaVuSans-20"/>
     <use x="1483.931641" xlink:href="#DejaVuSans-48"/>
     <use x="1559.126953" xlink:href="#DejaVuSans-75"/>
     <use x="1622.505859" xlink:href="#DejaVuSans-6d"/>
     <use x="1719.917969" xlink:href="#DejaVuSans-61"/>
     <use x="1781.197266" xlink:href="#DejaVuSans-6e"/>
     <use x="1844.576172" xlink:href="#DejaVuSans-20"/>
     <use x="1876.363281" xlink:href="#DejaVuSans-42"/>
     <use x="1944.966797" xlink:href="#DejaVuSans-6c"/>
     <use x="1972.75" xlink:href="#DejaVuSans-6f"/>
     <use x="2033.931641" xlink:href="#DejaVuSans-6f"/>
     <use x="2095.113281" xlink:href="#DejaVuSans-64"/>
     <use x="2158.589844" xlink:href="#DejaVuSans-20"/>
     <use x="2190.376953" xlink:href="#DejaVuSans-4c"/>
     <use x="2244.339844" xlink:href="#DejaVuSans-65"/>
     <use x="2305.863281" xlink:href="#DejaVuSans-75"/>
     <use x="2369.242188" xlink:href="#DejaVuSans-6b"/>
     <use x="2423.527344" xlink:href="#DejaVuSans-65"/>
     <use x="2485.050781" xlink:href="#DejaVuSans-6d"/>
     <use x="2582.462891" xlink:href="#DejaVuSans-69"/>
     <use x="2610.246094" xlink:href="#DejaVuSans-61"/>
     <use x="2671.525391" xlink:href="#DejaVuSans-20"/>
     <use x="2703.3125" xlink:href="#DejaVuSans-20"/>
     <use x="2735.099609" xlink:href="#DejaVuSans-2a"/>
     <use x="2785.099609" xlink:href="#DejaVuSans-34"/>
     <use x="2848.722656" xlink:href="#DejaVuSans-2e"/>
     <use x="2880.509766" xlink:href="#DejaVuSans-32"/>
     <use x="2944.132812" xlink:href="#DejaVuSans-35"/>
     <use x="3007.755859" xlink:href="#DejaVuSans-65"/>
     <use x="3069.279297" xlink:href="#DejaVuSans-2d"/>
     <use x="3105.363281" xlink:href="#DejaVuSans-31"/>
     <use x="3168.986328" xlink:href="#DejaVuSans-34"/>
    </g>
   </g>
   <g id="text_17">
    <!-- TAL1 20887958 ChIP-Seq HPC-7 Mouse  *3.76e-13 -->
    <g transform="translate(20.2585 522.195937)scale(0.26 -0.26)">
     <defs>
      <path d="M -19 4666 
L 3928 4666 
L 3928 4134 
L 2272 4134 
L 2272 0 
L 1638 0 
L 1638 4134 
L -19 4134 
L -19 4666 
z
" id="DejaVuSans-54" transform="scale(0.015625)"/>
     </defs>
     <use xlink:href="#DejaVuSans-54"/>
     <use x="53.333984" xlink:href="#DejaVuSans-41"/>
     <use x="121.742188" xlink:href="#DejaVuSans-4c"/>
     <use x="177.455078" xlink:href="#DejaVuSans-31"/>
     <use x="241.078125" xlink:href="#DejaVuSans-20"/>
     <use x="272.865234" xlink:href="#DejaVuSans-32"/>
     <use x="336.488281" xlink:href="#DejaVuSans-30"/>
     <use x="400.111328" xlink:href="#DejaVuSans-38"/>
     <use x="463.734375" xlink:href="#DejaVuSans-38"/>
     <use x="527.357422" xlink:href="#DejaVuSans-37"/>
     <use x="590.980469" xlink:href="#DejaVuSans-39"/>
     <use x="654.603516" xlink:href="#DejaVuSans-35"/>
     <use x="718.226562" xlink:href="#DejaVuSans-38"/>
     <use x="781.849609" xlink:href="#DejaVuSans-20"/>
     <use x="813.636719" xlink:href="#DejaVuSans-43"/>
     <use x="883.460938" xlink:href="#DejaVuSans-68"/>
     <use x="946.839844" xlink:href="#DejaVuSans-49"/>
     <use x="976.332031" xlink:href="#DejaVuSans-50"/>
     <use x="1034.384766" xlink:href="#DejaVuSans-2d"/>
     <use x="1070.46875" xlink:href="#DejaVuSans-53"/>
     <use x="1133.945312" xlink:href="#DejaVuSans-65"/>
     <use x="1195.46875" xlink:href="#DejaVuSans-71"/>
     <use x="1258.945312" xlink:href="#DejaVuSans-20"/>
     <use x="1290.732422" xlink:href="#DejaVuSans-48"/>
     <use x="1365.927734" xlink:href="#DejaVuSans-50"/>
     <use x="1426.230469" xlink:href="#DejaVuSans-43"/>
     <use x="1496.054688" xlink:href="#DejaVuSans-2d"/>
     <use x="1532.138672" xlink:href="#DejaVuSans-37"/>
     <use x="1595.761719" xlink:href="#DejaVuSans-20"/>
     <use x="1627.548828" xlink:href="#DejaVuSans-4d"/>
     <use x="1713.828125" xlink:href="#DejaVuSans-6f"/>
     <use x="1775.009766" xlink:href="#DejaVuSans-75"/>
     <use x="1838.388672" xlink:href="#DejaVuSans-73"/>
     <use x="1890.488281" xlink:href="#DejaVuSans-65"/>
     <use x="1952.011719" xlink:href="#DejaVuSans-20"/>
     <use x="1983.798828" xlink:href="#DejaVuSans-20"/>
     <use x="2015.585938" xlink:href="#DejaVuSans-2a"/>
     <use x="2065.585938" xlink:href="#DejaVuSans-33"/>
     <use x="2129.208984" xlink:href="#DejaVuSans-2e"/>
     <use x="2160.996094" xlink:href="#DejaVuSans-37"/>
     <use x="2224.619141" xlink:href="#DejaVuSans-36"/>
     <use x="2288.242188" xlink:href="#DejaVuSans-65"/>
     <use x="2349.765625" xlink:href="#DejaVuSans-2d"/>
     <use x="2385.849609" xlink:href="#DejaVuSans-31"/>
     <use x="2449.472656" xlink:href="#DejaVuSans-33"/>
    </g>
   </g>
   <g id="text_18">
    <!-- YY1 26981420 ChIP-Seq C2C12 Mouse Muscle  *3.95e-12 -->
    <g transform="translate(20.2585 587.427937)scale(0.26 -0.26)">
     <use xlink:href="#DejaVuSans-59"/>
     <use x="61.083984" xlink:href="#DejaVuSans-59"/>
     <use x="122.167969" xlink:href="#DejaVuSans-31"/>
     <use x="185.791016" xlink:href="#DejaVuSans-20"/>
     <use x="217.578125" xlink:href="#DejaVuSans-32"/>
     <use x="281.201172" xlink:href="#DejaVuSans-36"/>
     <use x="344.824219" xlink:href="#DejaVuSans-39"/>
     <use x="408.447266" xlink:href="#DejaVuSans-38"/>
     <use x="472.070312" xlink:href="#DejaVuSans-31"/>
     <use x="535.693359" xlink:href="#DejaVuSans-34"/>
     <use x="599.316406" xlink:href="#DejaVuSans-32"/>
     <use x="662.939453" xlink:href="#DejaVuSans-30"/>
     <use x="726.5625" xlink:href="#DejaVuSans-20"/>
     <use x="758.349609" xlink:href="#DejaVuSans-43"/>
     <use x="828.173828" xlink:href="#DejaVuSans-68"/>
     <use x="891.552734" xlink:href="#DejaVuSans-49"/>
     <use x="921.044922" xlink:href="#DejaVuSans-50"/>
     <use x="979.097656" xlink:href="#DejaVuSans-2d"/>
     <use x="1015.181641" xlink:href="#DejaVuSans-53"/>
     <use x="1078.658203" xlink:href="#DejaVuSans-65"/>
     <use x="1140.181641" xlink:href="#DejaVuSans-71"/>
     <use x="1203.658203" xlink:href="#DejaVuSans-20"/>
     <use x="1235.445312" xlink:href="#DejaVuSans-43"/>
     <use x="1305.269531" xlink:href="#DejaVuSans-32"/>
     <use x="1368.892578" xlink:href="#DejaVuSans-43"/>
     <use x="1438.716797" xlink:href="#DejaVuSans-31"/>
     <use x="1502.339844" xlink:href="#DejaVuSans-32"/>
     <use x="1565.962891" xlink:href="#DejaVuSans-20"/>
     <use x="1597.75" xlink:href="#DejaVuSans-4d"/>
     <use x="1684.029297" xlink:href="#DejaVuSans-6f"/>
     <use x="1745.210938" xlink:href="#DejaVuSans-75"/>
     <use x="1808.589844" xlink:href="#DejaVuSans-73"/>
     <use x="1860.689453" xlink:href="#DejaVuSans-65"/>
     <use x="1922.212891" xlink:href="#DejaVuSans-20"/>
     <use x="1954" xlink:href="#DejaVuSans-4d"/>
     <use x="2040.279297" xlink:href="#DejaVuSans-75"/>
     <use x="2103.658203" xlink:href="#DejaVuSans-73"/>
     <use x="2155.757812" xlink:href="#DejaVuSans-63"/>
     <use x="2210.738281" xlink:href="#DejaVuSans-6c"/>
     <use x="2238.521484" xlink:href="#DejaVuSans-65"/>
     <use x="2300.044922" xlink:href="#DejaVuSans-20"/>
     <use x="2331.832031" xlink:href="#DejaVuSans-20"/>
     <use x="2363.619141" xlink:href="#DejaVuSans-2a"/>
     <use x="2413.619141" xlink:href="#DejaVuSans-33"/>
     <use x="2477.242188" xlink:href="#DejaVuSans-2e"/>
     <use x="2509.029297" xlink:href="#DejaVuSans-39"/>
     <use x="2572.652344" xlink:href="#DejaVuSans-35"/>
     <use x="2636.275391" xlink:href="#DejaVuSans-65"/>
     <use x="2697.798828" xlink:href="#DejaVuSans-2d"/>
     <use x="2733.882812" xlink:href="#DejaVuSans-31"/>
     <use x="2797.505859" xlink:href="#DejaVuSans-32"/>
    </g>
   </g>
   <g id="text_19">
    <!-- MYC 19079543 ChIP-ChIP MESCs Mouse  *1.87e-11 -->
    <g transform="translate(20.2585 652.659937)scale(0.26 -0.26)">
     <use xlink:href="#DejaVuSans-4d"/>
     <use x="86.279297" xlink:href="#DejaVuSans-59"/>
     <use x="141.863281" xlink:href="#DejaVuSans-43"/>
     <use x="211.6875" xlink:href="#DejaVuSans-20"/>
     <use x="243.474609" xlink:href="#DejaVuSans-31"/>
     <use x="307.097656" xlink:href="#DejaVuSans-39"/>
     <use x="370.720703" xlink:href="#DejaVuSans-30"/>
     <use x="434.34375" xlink:href="#DejaVuSans-37"/>
     <use x="497.966797" xlink:href="#DejaVuSans-39"/>
     <use x="561.589844" xlink:href="#DejaVuSans-35"/>
     <use x="625.212891" xlink:href="#DejaVuSans-34"/>
     <use x="688.835938" xlink:href="#DejaVuSans-33"/>
     <use x="752.458984" xlink:href="#DejaVuSans-20"/>
     <use x="784.246094" xlink:href="#DejaVuSans-43"/>
     <use x="854.070312" xlink:href="#DejaVuSans-68"/>
     <use x="917.449219" xlink:href="#DejaVuSans-49"/>
     <use x="946.941406" xlink:href="#DejaVuSans-50"/>
     <use x="1004.994141" xlink:href="#DejaVuSans-2d"/>
     <use x="1041.078125" xlink:href="#DejaVuSans-43"/>
     <use x="1110.902344" xlink:href="#DejaVuSans-68"/>
     <use x="1174.28125" xlink:href="#DejaVuSans-49"/>
     <use x="1203.773438" xlink:href="#DejaVuSans-50"/>
     <use x="1264.076172" xlink:href="#DejaVuSans-20"/>
     <use x="1295.863281" xlink:href="#DejaVuSans-4d"/>
     <use x="1382.142578" xlink:href="#DejaVuSans-45"/>
     <use x="1445.326172" xlink:href="#DejaVuSans-53"/>
     <use x="1508.802734" xlink:href="#DejaVuSans-43"/>
     <use x="1578.626953" xlink:href="#DejaVuSans-73"/>
     <use x="1630.726562" xlink:href="#DejaVuSans-20"/>
     <use x="1662.513672" xlink:href="#DejaVuSans-4d"/>
     <use x="1748.792969" xlink:href="#DejaVuSans-6f"/>
     <use x="1809.974609" xlink:href="#DejaVuSans-75"/>
     <use x="1873.353516" xlink:href="#DejaVuSans-73"/>
     <use x="1925.453125" xlink:href="#DejaVuSans-65"/>
     <use x="1986.976562" xlink:href="#DejaVuSans-20"/>
     <use x="2018.763672" xlink:href="#DejaVuSans-20"/>
     <use x="2050.550781" xlink:href="#DejaVuSans-2a"/>
     <use x="2100.550781" xlink:href="#DejaVuSans-31"/>
     <use x="2164.173828" xlink:href="#DejaVuSans-2e"/>
     <use x="2195.960938" xlink:href="#DejaVuSans-38"/>
     <use x="2259.583984" xlink:href="#DejaVuSans-37"/>
     <use x="2323.207031" xlink:href="#DejaVuSans-65"/>
     <use x="2384.730469" xlink:href="#DejaVuSans-2d"/>
     <use x="2420.814453" xlink:href="#DejaVuSans-31"/>
     <use x="2484.4375" xlink:href="#DejaVuSans-31"/>
    </g>
   </g>
   <g id="text_20">
    <!-- ChEA 2022 -->
    <g transform="translate(611.522344 26.955937)scale(0.26 -0.26)">
     <use xlink:href="#DejaVuSans-43"/>
     <use x="69.824219" xlink:href="#DejaVuSans-68"/>
     <use x="133.203125" xlink:href="#DejaVuSans-45"/>
     <use x="196.386719" xlink:href="#DejaVuSans-41"/>
     <use x="264.794922" xlink:href="#DejaVuSans-20"/>
     <use x="296.582031" xlink:href="#DejaVuSans-32"/>
     <use x="360.205078" xlink:href="#DejaVuSans-30"/>
     <use x="423.828125" xlink:href="#DejaVuSans-32"/>
     <use x="487.451172" xlink:href="#DejaVuSans-32"/>
    </g>
   </g>
  </g>
 </g>
 <defs>
  <clipPath id="pe596ecfd86">
   <rect height="652.32" width="1339.2" x="13.5625" y="32.955937"/>
  </clipPath>
 </defs>
</svg>
